:SAMPLES-PER-SECOND 30
:FULLY-SPECIFIED
:DEGREES
394
root  66.6442 39.7488 5.82979 3.55705 -51.9747 9.24275
RightUpLeg  -23.3323 -20.6281 -1.9318
RightLeg  7.06776 -51.972 7.32499
RightFoot  -6.91009 0.278854 -8.43086
RightToes  0.00048216 0.542163 -0.142577
Spine  39.9406 1.0778 -3.57505
Spine1  8.36368 -0.463519 0.485193
HEad  -37.4633 -21.4688 18.8356
LeftShoulder1  9.15033 -16.7931 -38.8757
LeftArm  -22.4119 19.3491 -23.2366
LeftForeArm  66.9275 -79.1239 -81.7385
LeftHand  -0.25398 0.0180481 5.50724
RightShoulder  4.44079 8.68508 30.4819
RightArm  -12.2315 1.34091 29.3814
RightForeArm  48.2816 78.3185 84.832
RightHand  -0.272743 -13.779 2.31206
LeftUpLeg  -7.84491 16.4842 6.38502
LeftLeg  4.46162 73.0545 -8.45332
LeftFoot  1.63246 0.44261 -3.94429
LeftToes  1.06243e-005 4.65856e-005 -8.18505e-006
395
root  65.7436 39.715 6.09197 -0.709712 -56.2858 10.935
RightUpLeg  -22.2275 -26.2803 0.339769
RightLeg  12.4911 -41.5503 2.81577
RightFoot  -8.25729 0.199016 -9.38581
RightToes  0.00048216 0.542163 -0.142577
Spine  37.8129 1.12685 -4.03485
Spine1  8.0491 -0.458662 0.071781
HEad  -35.4365 -21.1567 18.2476
LeftShoulder1  8.95484 -16.1888 -39.2533
LeftArm  -22.3656 23.2734 -22.1017
LeftForeArm  82.8141 -79.1282 -97.8929
LeftHand  -0.25398 0.0180481 5.50724
RightShoulder  4.49519 8.55585 31.329
RightArm  -10.823 -2.3087 30.6527
RightForeArm  50.4726 78.338 87.4535
RightHand  -0.291321 -14.7792 2.19518
LeftUpLeg  -5.44081 26.4485 6.75367
LeftLeg  14.6435 58.688 1.0495
LeftFoot  -2.96253 0.215646 -2.53505
LeftToes  1.06243e-005 4.65856e-005 -8.18505e-006
396
root  64.8238 39.6876 6.3601 -5.16732 -61.0747 12.9782
RightUpLeg  -21.2219 -32.9579 2.86923
RightLeg  15.9416 -29.4168 -0.118627
RightFoot  -9.87158 0.047913 -8.81779
RightToes  0.00048216 0.542163 -0.142577
Spine  35.3277 1.26392 -4.44484
Spine1  8.33774 -0.264992 -0.259524
HEad  -33.058 -20.4337 16.5177
LeftShoulder1  8.74343 -15.6105 -39.5148
LeftArm  -22.714 26.1115 -21.3329
LeftForeArm  95.2278 -78.5046 -110.567
LeftHand  -0.25398 0.0180481 5.50724
RightShoulder  4.47281 8.3518 31.7835
RightArm  -9.63598 -4.62156 31.5402
RightForeArm  50.6727 78.3263 88.1375
RightHand  -0.265352 -15.0189 1.81762
LeftUpLeg  -5.04583 37.6843 5.63268
LeftLeg  17.7403 36.0373 5.43032
LeftFoot  -7.15855 0.0232514 0.425148
LeftToes  1.06243e-005 4.65856e-005 -8.18505e-006
397
root  63.8915 39.6626 6.63168 -9.49146 -66.3059 14.6773
RightUpLeg  -18.1166 -34.6002 3.07447
RightLeg  17.4216 -22.4442 -1.09027
RightFoot  -11.185 -0.0651581 -7.62861
RightToes  0.00048216 0.542163 -0.142577
Spine  32.9989 1.27644 -4.09976
Spine1  9.00623 0.0893288 -0.62181
HEad  -30.0105 -19.1987 13.6591
LeftShoulder1  8.56642 -15.0463 -39.9321
LeftArm  -23.1565 27.9546 -20.6817
LeftForeArm  103.493 -77.7218 -118.927
LeftHand  -0.25398 0.0180481 5.50724
RightShoulder  4.5542 8.35434 32.4638
RightArm  -8.6164 -5.71776 31.5063
RightForeArm  49.0582 78.304 86.8148
RightHand  -0.261349 -14.8829 1.81019
LeftUpLeg  -5.17245 38.8694 4.67928
LeftLeg  20.3904 17.9317 7.68174
LeftFoot  -9.65509 0.0362348 1.1644
LeftToes  1.06243e-005 4.65856e-005 -8.18505e-006
398
root  62.9478 39.6151 6.90209 -14.1992 -72.1412 16.5185
RightUpLeg  -13.2578 -31.4512 1.55695
RightLeg  18.1678 -20.1238 -0.901584
RightFoot  -12.3001 -0.139134 -6.6713
RightToes  0.00048216 0.542163 -0.142577
Spine  31.3209 1.27582 -2.82779
Spine1  9.54458 0.782337 -1.18927
HEad  -28.5263 -17.4191 12.1167
LeftShoulder1  8.40666 -14.5474 -40.3038
LeftArm  -23.4366 29.1117 -20.2679
LeftForeArm  108.511 -77.1071 -123.738
LeftHand  -0.25398 0.0180481 5.50724
RightShoulder  4.6334 8.34762 33.1541
RightArm  -7.97705 -6.18917 31.3745
RightForeArm  46.6043 78.266 84.3869
RightHand  -0.322582 -15.2433 2.40027
LeftUpLeg  -4.23287 26.0168 5.4611
LeftLeg  25.5104 12.8336 6.95239
LeftFoot  -10.5664 0.0681624 -0.533753
LeftToes  1.06243e-005 4.65856e-005 -8.18505e-006
399
root  61.9647 39.5661 7.17269 -20.709 -78.2066 20.5345
RightUpLeg  -8.76799 -27.2285 0.321596
RightLeg  18.7005 -18.5472 -0.480656
RightFoot  -13.3568 -0.1954 -5.97044
RightToes  0.00048216 0.542163 -0.142577
Spine  29.8161 1.22245 -1.07089
Spine1  9.86809 1.67069 -2.06573
HEad  -26.3373 -15.867 10.3205
LeftShoulder1  8.26553 -14.1235 -40.6066
LeftArm  -23.5667 29.9028 -20.0838
LeftForeArm  111.505 -76.7043 -126.427
LeftHand  -0.25398 0.0180481 5.50724
RightShoulder  4.60549 8.17017 33.5065
RightArm  -7.89717 -6.65385 31.7968
RightForeArm  45.3743 78.2409 83.002
RightHand  -0.406922 -16.0871 3.03822
LeftUpLeg  -4.47029 15.6633 4.84779
LeftLeg  30.8591 8.8686 6.05099
LeftFoot  -10.4358 0.0765957 -1.76315
LeftToes  1.06243e-005 4.65856e-005 -8.18505e-006
400
root  60.9167 39.5459 7.40212 -44.8921 -83.7826 43.4161
RightUpLeg  -5.6908 -23.2124 -0.249452
RightLeg  18.8938 -16.5167 -0.0464012
RightFoot  -14.3134 -0.232799 -5.24926
RightToes  0.00048216 0.542163 -0.142577
Spine  27.507 1.27116 0.416601
Spine1  10.1506 2.56427 -2.94871
HEad  -23.8475 -14.2286 8.28966
LeftShoulder1  8.16147 -13.7353 -41.0326
LeftArm  -23.7565 30.5588 -19.9244
LeftForeArm  113.543 -76.3618 -128.413
LeftHand  -0.25398 0.0180481 5.50724
RightShoulder  4.53136 7.94495 33.6339
RightArm  -8.23422 -7.31603 32.4896
RightForeArm  46.2466 78.2616 83.7911
RightHand  -0.390612 -16.4278 2.74052
LeftUpLeg  -6.1988 7.33944 3.22631
LeftLeg  35.7717 8.20659 6.68066
LeftFoot  -9.79542 0.0751454 -1.24891
LeftToes  1.06243e-005 4.65856e-005 -8.18505e-006
401
root  59.8072 39.5417 7.52555 -112.956 -85.7865 111.101
RightUpLeg  -3.59682 -18.5569 -0.38117
RightLeg  18.6445 -14.3101 0.419592
RightFoot  -15.1364 -0.248597 -4.41246
RightToes  0.00048216 0.542163 -0.142577
Spine  24.601 1.96496 1.3088
Spine1  10.4789 3.83955 -3.58253
HEad  -21.4455 -12.0843 6.08019
LeftShoulder1  8.07243 -13.3831 -41.4634
LeftArm  -24.1936 31.0768 -19.8693
LeftForeArm  115.358 -75.9711 -130.404
LeftHand  -0.25398 0.0180481 5.50724
RightShoulder  4.4869 7.79767 33.7552
RightArm  -8.85136 -7.98933 33.1212
RightForeArm  48.3591 78.3023 85.794
RightHand  -0.269125 -15.8971 1.64133
LeftUpLeg  -8.54177 3.08419 2.08422
LeftLeg  38.8301 8.89573 7.95701
LeftFoot  -9.33554 0.0610674 -0.270244
LeftToes  1.06243e-005 4.65856e-005 -8.18505e-006
